<?xml version="1.0" encoding="UTF-8"?>
<!DOCTYPE svg PUBLIC "-//W3C//DTD SVG 1.1//EN" "http://www.w3.org/Graphics/SVG/1.1/DTD/svg11.dtd">
<!-- Creator: CorelDRAW X8 -->
<svg xmlns="http://www.w3.org/2000/svg" xml:space="preserve" width="100%" height="100%" version="1.1" style="shape-rendering:geometricPrecision; text-rendering:geometricPrecision; image-rendering:optimizeQuality; fill-rule:evenodd; clip-rule:evenodd"
viewBox="0 0 3355 923"
 xmlns:xlink="http://www.w3.org/1999/xlink">
 <defs>
  <style type="text/css">
   <![CDATA[
    .fil1 {fill:#333333}
    .fil0 {fill:#333333;fill-rule:nonzero}
    .fil2 {fill:#858384;fill-rule:nonzero}
   ]]>
  </style>
 </defs>
 <g id="Capa_x0020_1">
  <metadata id="CorelCorpID_0Corel-Layer"/>
  <g id="_708410462640">
   <g>
    <polygon class="fil0" points="1330,700 1461,700 1461,727 1366,727 1366,743 1456,743 1456,768 1366,768 1366,787 1461,787 1461,814 1330,814 "/>
    <path class="fil0" d="M1469 788l31 0c1,4 3,6 6,7 4,2 11,2 20,2 11,0 17,0 21,-1 4,-1 5,-3 5,-6 0,-3 -1,-5 -5,-6 -1,0 -10,-1 -26,-1 -15,0 -25,0 -28,-1 -10,-1 -17,-4 -20,-9 -3,-3 -4,-8 -4,-15 0,-12 5,-19 14,-23 7,-3 21,-4 44,-4 14,0 24,1 31,2 6,1 11,3 15,5 2,2 3,4 4,7 1,2 2,6 2,11l-31 0c-1,-2 -2,-3 -3,-4 -2,-1 -9,-2 -19,-2 -10,0 -17,0 -20,1 -4,1 -6,3 -6,5 0,4 3,5 8,6 4,0 18,0 42,0 12,0 21,2 26,6 5,4 8,10 8,20 0,6 -1,11 -3,14 -2,4 -6,7 -10,9 -8,3 -23,5 -47,5 -15,0 -26,-1 -33,-2 -6,-1 -11,-3 -15,-6 -5,-5 -7,-11 -7,-20z"/>
    <path class="fil0" d="M1605 715l31 0 0 18 49 0 0 22 -49 0 0 23c0,7 0,11 1,12 2,3 6,4 11,4 6,0 10,-1 12,-4 0,-1 0,-2 1,-3 0,-1 0,-4 0,-8l28 0c0,8 0,14 -1,17 -1,3 -3,7 -5,10 -3,3 -7,6 -13,8 -5,1 -14,2 -24,2 -10,0 -18,-1 -23,-2 -4,-1 -8,-3 -11,-6 -3,-2 -4,-4 -5,-6 -1,-3 -2,-6 -2,-11 0,-1 0,-6 0,-13l0 -23 -17 0 0 -22 17 0 0 -18z"/>
    <path class="fil0" d="M1810 814l-29 0 0 -12 -2 0c-2,5 -6,9 -12,11 -5,2 -13,3 -24,3 -9,0 -17,-1 -23,-2 -5,-2 -10,-5 -14,-8 -4,-4 -6,-8 -7,-13 -2,-4 -2,-12 -2,-23l0 -37 31 0 0 37c0,6 0,10 1,13 0,2 2,4 3,6 2,1 4,3 7,3 3,1 8,1 14,1 10,0 17,-1 20,-4 2,-2 4,-5 5,-8 0,-3 1,-8 1,-15l0 -33 31 0 0 81z"/>
    <path class="fil0" d="M1939 700l0 114 -29 0 0 -11 -2 0c-2,4 -4,7 -7,8 -6,3 -16,5 -30,5 -11,0 -20,-1 -26,-2 -6,-1 -11,-3 -14,-7 -4,-3 -6,-7 -7,-12 -2,-5 -2,-12 -2,-22 0,-7 0,-13 1,-17 1,-4 2,-8 3,-11 4,-6 9,-10 18,-12 6,-1 15,-2 28,-2 11,0 18,1 23,3 5,1 9,5 12,10l1 0 0 -44 31 0zm-57 54c-13,0 -20,1 -24,3 -3,2 -5,8 -5,16 0,6 0,10 1,13 1,2 3,4 6,5 4,1 10,2 20,2 11,0 19,-1 23,-3 2,-1 3,-3 4,-6 1,-2 1,-6 1,-10 0,-6 0,-10 -1,-13 -1,-2 -3,-4 -6,-5 -4,-1 -10,-2 -19,-2z"/>
    <path class="fil0" d="M1953 733l32 0 0 81 -32 0 0 -81zm0 -33l32 0 0 23 -32 0 0 -23z"/>
    <path class="fil0" d="M2055 731c15,0 25,1 32,2 7,1 13,3 17,5 4,3 7,7 8,12 2,4 2,12 2,22 0,7 0,13 0,17 -1,4 -1,7 -3,10 -3,8 -9,12 -18,14 -7,2 -20,3 -37,3 -16,0 -27,-1 -34,-2 -7,-1 -12,-3 -16,-6 -4,-3 -6,-7 -8,-12 -1,-5 -2,-13 -2,-25 0,-7 1,-12 1,-15 1,-4 2,-7 3,-10 3,-6 9,-10 16,-12 8,-2 21,-3 39,-3zm1 23c-11,0 -18,1 -21,2 -3,1 -5,3 -6,6 -1,3 -2,7 -2,12 0,5 1,9 2,11 1,3 3,4 5,6 4,1 11,2 22,2 11,0 19,-1 22,-3 4,-3 5,-8 5,-17 0,-5 0,-9 -1,-11 -1,-3 -3,-5 -6,-6 -4,-1 -11,-2 -20,-2z"/>
    <polygon class="fil0" points="2185,700 2222,700 2222,814 2185,814 "/>
    <path class="fil0" d="M2238 733l29 0 0 12 2 0c2,-5 7,-9 12,-11 5,-2 13,-3 23,-3 10,0 18,1 24,2 5,2 10,4 14,8 3,4 6,8 7,13 1,4 2,12 2,23l0 37 -31 0 0 -37c0,-6 -1,-11 -1,-13 -1,-2 -2,-4 -3,-6 -3,-3 -10,-4 -21,-4 -11,0 -18,2 -22,5 -2,2 -3,4 -3,7 -1,3 -1,8 -1,16l0 32 -31 0 0 -81z"/>
    <path class="fil0" d="M2364 733l30 0 0 12 1 0c5,-9 16,-14 34,-14 10,0 18,1 24,4 6,3 11,7 14,13 3,-6 7,-10 12,-13 6,-3 14,-4 24,-4 9,0 16,1 21,2 6,2 10,5 14,8 3,4 6,8 7,13 1,4 2,12 2,22l0 38 -32 0 0 -38c0,-6 0,-10 0,-12 -1,-3 -2,-4 -3,-6 -3,-3 -9,-4 -18,-4 -9,0 -15,1 -18,5 -2,2 -3,4 -4,7 -1,3 -1,8 -1,15l0 33 -31 0 0 -38c0,-6 0,-10 -1,-12 0,-3 -1,-4 -2,-6 -3,-3 -9,-4 -18,-4 -9,0 -15,1 -19,5 -2,1 -3,4 -3,7 -1,3 -1,8 -1,15l0 33 -32 0 0 -81z"/>
    <path class="fil0" d="M2617 731c14,0 25,1 32,2 7,1 12,3 16,5 4,3 7,7 9,12 1,4 2,12 2,22 0,7 0,13 -1,17 0,4 -1,7 -2,10 -3,8 -9,12 -18,14 -8,2 -20,3 -38,3 -16,0 -27,-1 -33,-2 -7,-1 -13,-3 -17,-6 -3,-3 -6,-7 -7,-12 -2,-5 -2,-13 -2,-25 0,-7 0,-12 1,-15 0,-4 1,-7 3,-10 3,-6 8,-10 16,-12 7,-2 20,-3 39,-3zm0 23c-10,0 -17,1 -21,2 -2,1 -4,3 -5,6 -1,3 -2,7 -2,12 0,5 0,9 1,11 1,3 3,4 6,6 4,1 11,2 21,2 12,0 19,-1 23,-3 3,-3 5,-8 5,-17 0,-5 -1,-9 -2,-11 -1,-3 -3,-5 -5,-6 -4,-1 -11,-2 -21,-2z"/>
    <path class="fil0" d="M2688 700l31 0 0 44 1 0c3,-5 7,-8 12,-10 5,-2 13,-3 23,-3 11,0 19,1 25,2 6,1 11,3 15,6 4,2 7,6 8,11 2,5 2,13 2,23 0,7 0,12 0,16 -1,3 -2,7 -3,10 -2,6 -7,11 -14,13 -7,3 -17,4 -32,4 -14,0 -25,-2 -30,-5 -2,-1 -5,-4 -7,-8l-2 0 0 11 -29 0 0 -114zm59 54c-11,0 -18,1 -22,3 -2,1 -4,3 -5,5 -1,3 -1,7 -1,12 0,5 0,10 2,12 1,2 3,4 6,5 4,1 11,2 20,2 11,0 19,-1 22,-3 2,-1 3,-3 4,-6 1,-2 1,-6 1,-11 0,-6 0,-9 -1,-12 -1,-2 -3,-4 -6,-5 -4,-1 -11,-2 -20,-2z"/>
    <path class="fil0" d="M2817 733l31 0 0 81 -31 0 0 -81zm0 -33l31 0 0 23 -31 0 0 -23z"/>
    <polygon class="fil0" points="2862,700 2894,700 2894,814 2862,814 "/>
    <path class="fil0" d="M2908 733l31 0 0 81 -31 0 0 -81zm0 -33l31 0 0 23 -31 0 0 -23z"/>
    <path class="fil0" d="M2985 758l-31 0c0,-6 2,-11 4,-14 4,-5 9,-8 17,-10 8,-2 21,-3 40,-3 14,0 23,0 28,1 5,1 9,4 13,7 3,3 4,6 5,10 1,3 2,9 2,16l0 49 -30 0 0 -11 -2 0c-2,5 -5,8 -10,10 -3,1 -7,2 -12,2 -4,1 -12,1 -22,1 -9,0 -15,-1 -20,-2 -4,-1 -8,-2 -11,-5 -4,-4 -6,-10 -6,-18 0,-10 3,-16 8,-21 3,-3 8,-5 15,-6 6,-1 17,-1 34,-1 7,0 12,0 15,1 3,1 6,2 8,5l2 0 0 -4c0,-7 -1,-11 -4,-12 -2,-2 -8,-3 -18,-3 -11,0 -18,1 -20,2 -3,0 -5,3 -5,6zm21 22c-11,0 -17,0 -20,2 -3,1 -4,3 -4,6 0,3 1,6 4,7 3,1 9,2 17,2 11,0 18,-1 22,-2 4,-2 6,-4 6,-8 0,-3 -2,-5 -5,-6 -1,-1 -8,-1 -20,-1z"/>
    <path class="fil0" d="M3076 733l30 0 0 12 1 0c3,-5 7,-9 12,-11 5,-2 12,-3 21,-3 12,0 21,2 26,7 5,5 7,13 7,26 0,0 0,2 0,5l-29 0c0,-5 -1,-8 -2,-10 -2,-3 -7,-5 -15,-5 -7,0 -12,2 -15,6 -2,2 -3,4 -3,7 -1,3 -1,7 -1,13l0 34 -32 0 0 -81z"/>
    <path class="fil0" d="M3182 733l31 0 0 81 -31 0 0 -81zm0 -33l31 0 0 23 -31 0 0 -23z"/>
    <path class="fil0" d="M3284 731c14,0 25,1 32,2 7,1 12,3 16,5 5,3 7,7 9,12 1,4 2,12 2,22 0,7 0,13 -1,17 0,4 -1,7 -2,10 -3,8 -9,12 -18,14 -8,2 -20,3 -38,3 -15,0 -27,-1 -33,-2 -7,-1 -12,-3 -16,-6 -4,-3 -7,-7 -8,-12 -1,-5 -2,-13 -2,-25 0,-7 0,-12 1,-15 0,-4 1,-7 3,-10 3,-6 8,-10 16,-12 7,-2 20,-3 39,-3zm0 23c-10,0 -17,1 -21,2 -2,1 -4,3 -5,6 -1,3 -2,7 -2,12 0,5 1,9 1,11 1,3 3,4 6,6 4,1 11,2 21,2 12,0 20,-1 23,-3 3,-3 5,-8 5,-17 0,-5 -1,-9 -2,-11 -1,-3 -3,-5 -5,-6 -4,-1 -11,-2 -21,-2z"/>
   </g>
   <path class="fil1" d="M846 44l-4 452 4 383c22,3 41,5 55,5 42,0 84,-8 128,-23 44,-14 82,-35 116,-60 22,-17 44,-39 67,-66 23,-28 48,-58 62,-84 10,-18 10,-17 36,-17l2034 0 0 34 -2034 0c-5,12 -14,27 -27,45 -21,31 -44,58 -69,82 -54,53 -118,89 -192,110 -44,12 -86,18 -127,18 -60,0 -119,-13 -179,-38 -96,-41 -169,-105 -220,-192 -41,-73 -62,-150 -62,-232 0,-83 22,-162 65,-236 46,-79 112,-139 196,-180 62,-30 128,-45 200,-45 122,0 228,42 317,124 43,40 64,69 64,86 0,5 -2,9 -6,13 -5,4 -9,5 -15,5 -8,0 -18,-8 -30,-24 -37,-51 -85,-91 -145,-120 -59,-30 -122,-45 -189,-45 -16,0 -31,2 -45,5z"/>
   <path class="fil2" d="M462 0c67,0 132,14 194,43 92,42 162,107 210,194 39,70 58,147 58,229 0,67 -14,131 -44,193 -43,93 -112,163 -204,211 -68,35 -139,53 -214,53 -79,0 -154,-20 -224,-60 -94,-53 -161,-127 -201,-222 -25,-58 -37,-118 -37,-180 0,-78 19,-152 58,-223 48,-87 117,-152 208,-195 61,-28 126,-43 196,-43zm-49 43l-4 415 3 346 1 77c14,3 28,4 41,4 93,0 177,-26 251,-78 67,-47 116,-109 146,-183 21,-53 32,-107 32,-163 0,-74 -18,-143 -54,-207 -44,-78 -105,-136 -184,-173 -59,-28 -122,-42 -187,-42 -16,0 -31,2 -45,4z"/>
   <path class="fil2" d="M1163 259l-2 200 2 170c10,2 18,2 24,2 18,0 37,-3 56,-10 20,-6 37,-15 52,-26 9,-8 19,-18 29,-30 10,-12 19,-24 25,-36 3,-7 7,-10 11,-10 7,0 10,3 10,8 0,6 -5,15 -14,29 -10,13 -20,25 -31,36 -24,23 -52,39 -85,48 -19,6 -38,9 -56,9 -26,0 -52,-6 -79,-17 -42,-18 -74,-47 -97,-85 -18,-33 -27,-67 -27,-103 0,-37 9,-72 29,-105 20,-34 49,-61 86,-80 27,-13 57,-19 88,-19 54,0 101,18 140,55 19,17 28,30 28,38 0,2 -1,4 -2,5 -2,2 -4,3 -7,3 -3,0 -8,-4 -13,-11 -16,-23 -37,-40 -64,-53 -26,-13 -54,-20 -83,-20 -7,0 -14,1 -20,2zm394 39c30,0 58,8 85,25 25,16 44,37 57,63 12,24 18,49 18,75 0,18 -4,37 -10,55 -7,18 -17,34 -28,48 -17,20 -37,34 -61,44 -19,8 -40,12 -61,12 -35,0 -67,-10 -96,-31 -22,-17 -39,-37 -50,-63 -10,-21 -14,-44 -14,-68 0,-47 17,-85 50,-116 32,-29 68,-43 110,-44zm-9 18l0 285c5,1 9,1 12,1 26,0 51,-8 75,-22 22,-15 40,-34 51,-58 9,-18 14,-39 14,-62 0,-45 -17,-82 -51,-110 -27,-23 -56,-35 -88,-35 -2,0 -7,1 -13,1zm219 246c4,0 9,3 15,8 9,9 22,17 40,23 17,7 33,10 49,10 7,0 12,-1 15,-4 4,-2 6,-6 6,-10 0,-5 -3,-10 -8,-17 -4,-6 -15,-18 -32,-36 -40,-43 -67,-74 -79,-91 -11,-18 -17,-35 -17,-51 0,-14 4,-27 12,-40 8,-13 19,-24 34,-33 24,-15 52,-23 83,-23 24,0 48,5 74,15 20,8 30,16 30,25 0,3 -1,5 -4,8 -2,2 -5,3 -8,3 -3,0 -10,-4 -20,-10 -20,-15 -42,-22 -65,-22 -8,0 -15,1 -19,4 -4,3 -6,7 -6,12 0,7 4,15 11,24 8,10 24,27 48,50 24,23 38,38 45,45 6,7 12,15 18,24 10,16 15,33 15,52 0,29 -14,52 -42,70 -23,15 -51,22 -85,22 -37,0 -70,-8 -99,-25 -8,-5 -14,-9 -17,-12 -3,-3 -5,-7 -5,-10 0,-7 4,-11 11,-11zm442 -356l-3 91 0 9c16,0 31,-1 44,-2 3,-1 5,-1 6,-1 9,0 13,4 13,12 0,7 -5,10 -13,10 -3,0 -6,0 -10,0 -15,-1 -25,-2 -32,-2l-8 0 0 55 1 110 1 59c0,14 1,23 3,29 2,5 5,8 11,8 6,0 14,-4 21,-12 8,-8 14,-18 18,-29 4,-11 9,-16 14,-16 7,0 10,3 10,10 0,7 -3,16 -10,27 -6,11 -14,20 -23,28 -22,19 -51,29 -86,29 -33,0 -59,-10 -77,-30 -10,-11 -16,-22 -20,-34 -3,-13 -5,-30 -5,-53l0 -21 0 -59 0 -101c-2,-1 -4,-1 -5,-1 -2,0 -6,1 -12,1 -4,0 -8,1 -12,1 -9,0 -13,-4 -13,-11 0,-7 4,-11 13,-11 4,0 7,0 9,0l20 2 0 -32c56,-20 104,-42 145,-66zm256 92c31,0 59,8 86,25 25,16 44,37 57,63 12,24 18,49 18,75 0,18 -4,37 -10,55 -7,18 -17,34 -29,48 -16,20 -36,34 -60,44 -19,8 -40,12 -61,12 -35,0 -67,-10 -96,-31 -22,-17 -39,-37 -50,-63 -10,-21 -14,-44 -14,-68 0,-47 16,-85 50,-116 32,-29 68,-43 109,-44zm-8 18l-1 285c6,1 10,1 13,1 26,0 51,-8 74,-22 23,-15 41,-34 52,-58 9,-18 14,-39 14,-62 0,-45 -17,-82 -51,-110 -27,-23 -56,-35 -88,-35 -3,0 -7,1 -13,1zm416 130c37,-56 64,-99 81,-128 6,-10 10,-16 11,-17 2,-2 4,-3 7,-3 4,0 7,2 10,4 3,3 4,6 4,10 0,3 -1,6 -4,10 -27,37 -62,87 -103,150l-49 76c-17,26 -32,45 -43,57 -8,8 -18,14 -29,19 -12,5 -23,8 -33,8 -11,0 -19,-2 -26,-6 -6,-4 -10,-9 -10,-16 0,-4 2,-7 5,-10 3,-3 6,-4 11,-4 3,0 9,2 18,7 6,3 11,4 16,4 8,0 16,-3 24,-8 7,-5 16,-14 25,-25l-34 -53c-71,-111 -119,-183 -143,-215l179 0c11,24 24,49 39,74 15,24 29,46 44,66zm325 -20l0 -34c0,-24 0,-39 -1,-44 -1,-6 -2,-11 -5,-15 -7,-11 -22,-16 -47,-16 -39,0 -68,12 -89,36 -9,10 -16,14 -21,14 -5,0 -9,-1 -12,-4 -3,-3 -4,-7 -4,-10 0,-12 14,-24 41,-37 27,-12 62,-18 104,-18 69,0 118,11 147,32 12,9 20,19 24,31 4,11 5,31 5,60l0 112c0,21 0,37 2,47 2,11 7,22 13,34l-157 0 0 -30c-18,12 -35,21 -52,27 -17,6 -33,9 -50,9 -28,0 -53,-8 -74,-24 -29,-22 -43,-50 -43,-84 0,-30 12,-55 35,-73 26,-22 59,-33 99,-33 16,0 30,1 43,4 12,3 26,9 42,16zm0 21c-23,-12 -42,-18 -55,-18 -10,0 -18,4 -21,13 -2,4 -3,18 -3,41l0 67c0,15 1,24 2,27 2,9 8,13 19,13 8,0 18,-2 28,-8 11,-5 20,-12 29,-20l1 -115z"/>
  </g>
 </g>
</svg>
