<?xml version="1.0" encoding="UTF-8"?>
<!DOCTYPE svg PUBLIC "-//W3C//DTD SVG 1.1//EN" "http://www.w3.org/Graphics/SVG/1.1/DTD/svg11.dtd">
<!-- Creator: CorelDRAW X8 -->
<svg xmlns="http://www.w3.org/2000/svg" xml:space="preserve" width="100%" height="100%" version="1.1" style="shape-rendering:geometricPrecision; text-rendering:geometricPrecision; image-rendering:optimizeQuality; fill-rule:evenodd; clip-rule:evenodd"
viewBox="0 0 57600 25650"
 xmlns:xlink="http://www.w3.org/1999/xlink">
 <defs>
  <style type="text/css">
   <![CDATA[
    .str13 {stroke:#F0F0F0;stroke-width:75}
    .str5 {stroke:#F0F0F0;stroke-width:25}
    .str11 {stroke:#858384;stroke-width:22.55}
    .str8 {stroke:#858384;stroke-width:22.55}
    .str4 {stroke:#A39EA0;stroke-width:22.55}
    .str2 {stroke:#D6D6D6;stroke-width:22.55}
    .str6 {stroke:#333333;stroke-width:20}
    .str9 {stroke:#858384;stroke-width:20}
    .str1 {stroke:#858384;stroke-width:20}
    .str12 {stroke:#C9C7C7;stroke-width:20}
    .str10 {stroke:#858384;stroke-width:20}
    .str7 {stroke:#333333;stroke-width:15}
    .str0 {stroke:#C9C7C7;stroke-width:7.52}
    .str3 {stroke:#C9C7C7;stroke-width:7.62}
    .fil0 {fill:none}
    .fil10 {fill:none;fill-rule:nonzero}
    .fil23 {fill:#F0F0F0}
    .fil4 {fill:#F0F0F0}
    .fil1 {fill:#211E1E}
    .fil8 {fill:#333333}
    .fil22 {fill:#333333}
    .fil29 {fill:#6B6868}
    .fil28 {fill:#6B6868}
    .fil20 {fill:#858384}
    .fil30 {fill:#858384}
    .fil21 {fill:#858384}
    .fil24 {fill:#858384}
    .fil2 {fill:#858384}
    .fil5 {fill:#A39EA0}
    .fil19 {fill:#A39EA0}
    .fil27 {fill:#C9C7C7}
    .fil25 {fill:#C9C7C7}
    .fil3 {fill:white}
    .fil26 {fill:white}
    .fil6 {fill:white}
    .fil12 {fill:#F0F0F0;fill-rule:nonzero}
    .fil18 {fill:#211E1E;fill-rule:nonzero}
    .fil9 {fill:#333333;fill-rule:nonzero}
    .fil7 {fill:#858384;fill-rule:nonzero}
    .fil11 {fill:#C9C7C7;fill-rule:nonzero}
    .fil15 {fill:white;fill-rule:nonzero}
    .fil16 {fill:#333333;fill-rule:nonzero}
    .fil17 {fill:#C9C7C7;fill-rule:nonzero}
    .fil13 {fill:url(#id14);fill-rule:nonzero}
    .fil14 {fill:url(#id15);fill-rule:nonzero}
    .fnt2 {font-weight:normal;font-size:222.25px;font-family:'Roboto Cn'}
    .fnt1 {font-weight:normal;font-size:229.31px;font-family:'Roboto'}
    .fnt19 {font-weight:normal;font-size:238.64px;font-family:'Roboto'}
    .fnt21 {font-weight:normal;font-size:251.18px;font-family:'Roboto'}
    .fnt11 {font-weight:normal;font-size:264.58px;font-family:'Roboto'}
    .fnt3 {font-weight:normal;font-size:271.64px;font-family:'Roboto'}
    .fnt4 {font-weight:bold;font-size:271.64px;font-family:'Roboto'}
    .fnt12 {font-weight:normal;font-size:282.22px;font-family:'Roboto'}
    .fnt9 {font-weight:normal;font-size:291.66px;font-family:'Roboto Cn'}
    .fnt5 {font-weight:bold;font-size:291.66px;font-family:'Roboto Cn'}
    .fnt10 {font-weight:normal;font-size:291.68px;font-family:'Roboto'}
    .fnt17 {font-weight:normal;font-size:291.68px;font-family:'Roboto Cn'}
    .fnt18 {font-weight:bold;font-size:291.68px;font-family:'Roboto Cn'}
    .fnt20 {font-weight:normal;font-size:317.5px;font-family:'Roboto'}
    .fnt16 {font-weight:normal;font-size:317.5px;font-family:'Roboto Cn'}
    .fnt13 {font-weight:bold;font-size:317.5px;font-family:'Roboto Cn'}
    .fnt8 {font-weight:bold;font-size:352.77px;font-family:'Roboto'}
    .fnt7 {font-weight:500;font-size:388.05px;font-family:'Raleway'}
    .fnt15 {font-weight:500;font-size:423.33px;font-family:'Raleway'}
    .fnt6 {font-weight:normal;font-size:529.17px;font-family:'Raleway'}
    .fnt14 {font-weight:normal;font-size:564.44px;font-family:'Raleway'}
    .fnt0 {font-weight:normal;font-size:635px;font-family:'Raleway'}
   ]]>
  </style>
    <mask id="id0">
  <linearGradient id="id1" gradientUnits="userSpaceOnUse" x1="44447.5" y1="75.409" x2="46208.6" y2="3278.79">
   <stop offset="0" style="stop-opacity:0; stop-color:white"/>
   <stop offset="0.4" style="stop-opacity:0; stop-color:white"/>
   <stop offset="0.870588" style="stop-opacity:1; stop-color:white"/>
   <stop offset="1" style="stop-opacity:0; stop-color:white"/>
  </linearGradient>
     <rect style="fill:url(#id1)" x="45439" y="2357" width="962" height="792"/>
    </mask>
    <mask id="id2">
  <linearGradient id="id3" gradientUnits="userSpaceOnUse" x1="49095.1" y1="1697.11" x2="47899" y2="3037.2">
   <stop offset="0" style="stop-opacity:0; stop-color:white"/>
   <stop offset="1" style="stop-opacity:1; stop-color:white"/>
  </linearGradient>
     <rect style="fill:url(#id3)" x="47967" y="2489" width="478" height="408"/>
    </mask>
    <mask id="id4">
  <linearGradient id="id5" gradientUnits="userSpaceOnUse" x1="48016.1" y1="2251.13" x2="46330.8" y2="4391.37">
   <stop offset="0" style="stop-opacity:0; stop-color:white"/>
   <stop offset="1" style="stop-opacity:1; stop-color:white"/>
  </linearGradient>
     <rect style="fill:url(#id5)" x="46396" y="3061" width="863" height="1402"/>
    </mask>
    <mask id="id6">
  <linearGradient id="id7" gradientUnits="userSpaceOnUse" x1="45808.5" y1="6985.16" x2="46617.9" y2="2229.92">
   <stop offset="0" style="stop-opacity:0; stop-color:white"/>
   <stop offset="1" style="stop-opacity:1; stop-color:white"/>
  </linearGradient>
     <rect style="fill:url(#id7)" x="45756" y="3271" width="1167" height="1191"/>
    </mask>
     <mask id="id8">
  <linearGradient id="id9" gradientUnits="userSpaceOnUse" x1="48932.2" y1="4445.44" x2="47230.9" y2="2646.36">
   <stop offset="0" style="stop-opacity:0; stop-color:white"/>
   <stop offset="1" style="stop-opacity:1; stop-color:white"/>
  </linearGradient>
      <rect style="fill:url(#id9)" x="46569" y="2291" width="1224" height="607"/>
     </mask>
     <mask id="id10">
  <linearGradient id="id11" gradientUnits="userSpaceOnUse" x1="46591.6" y1="4698.93" x2="47317.2" y2="2007.85">
   <stop offset="0" style="stop-opacity:0; stop-color:white"/>
   <stop offset="1" style="stop-opacity:1; stop-color:white"/>
  </linearGradient>
      <rect style="fill:url(#id11)" x="46612" y="2335" width="1101" height="492"/>
     </mask>
    <mask id="id12">
  <linearGradient id="id13" gradientUnits="userSpaceOnUse" x1="48756.6" y1="2395.17" x2="48045.7" y2="3138.83">
   <stop offset="0" style="stop-opacity:0; stop-color:white"/>
   <stop offset="1" style="stop-opacity:1; stop-color:white"/>
  </linearGradient>
     <rect style="fill:url(#id13)" x="47891" y="2924" width="582" height="145"/>
    </mask>
  <linearGradient id="id14" gradientUnits="userSpaceOnUse" x1="48016.1" y1="2251.13" x2="46330.8" y2="4391.37">
   <stop offset="0" style="stop-opacity:1; stop-color:white"/>
   <stop offset="1" style="stop-opacity:1; stop-color:#D6D6D6"/>
  </linearGradient>
  <linearGradient id="id15" gradientUnits="userSpaceOnUse" xlink:href="#id14" x1="48932.2" y1="4445.44" x2="47230.9" y2="2646.36">
  </linearGradient>
 </defs>
 <g id="Capa_x0020_1">
  <metadata id="CorelCorpID_0Corel-Layer"/>
  <rect id="_P_HOME" class="fil0 str0" x="337" y="567" width="6873" height="10106"/>
  <text x="1105" y="1860"  class="fil1 fnt0">Tasaciones</text>
  <text x="3170" y="2498"  class="fil1 fnt0">Realizadas</text>
  <g id="_B_SUPERHOME">
   <text x="6311" y="1050"  class="fil2 fnt1">volver</text>
   <polyline class="fil0 str1" points="6262,923 6226,985 6262,1046 "/>
  </g>
  <rect class="fil3 str2" x="701" y="6508" width="6144" height="764"/>
  <rect class="fil4" x="713" y="6508" width="6121" height="317"/>
  <text x="1970" y="6774"  class="fil2 fnt2">E N T R E   R Í O S   630  -  L A   L U C I L A</text>
  <text x="895" y="7171"  class="fil2 fnt3">2257 529378</text>
  <text x="3839" y="7171"  class="fil2 fnt4">Lote</text>
  <text x="5719" y="7149"  class="fil2 fnt4">Venta</text>
  <line class="fil0 str3" x1="3652" y1="7272" x2="3652" y2= "6825" />
  <path class="fil5 str4" d="M701 6508l6144 0 0 -424c0,-11 -9,-20 -20,-20l-6104 0c-11,0 -20,9 -20,20l0 424z"/>
  <text x="3048" y="6386"  class="fil6 fnt5">Pablo Varela</text>
  <circle class="fil0 str5" cx="6506" cy="6288" r="152"/>
  <path class="fil0 str5" d="M6565 6228l-119 119m0 -119l119 119"/>
  <line class="fil0 str3" x1="5551" y1="7272" x2="5551" y2= "6825" />
  <rect id="_P_CONFIRMACION" class="fil0 str0" x="43200" y="567" width="6873" height="12027"/>
  <text x="43848" y="6202"  class="fil1 fnt6">La Propiedad fue dada </text>
  <text x="44547" y="6823"  class="fil1 fnt6">de alta con éxito!</text>
  <text x="44325" y="8065"  class="fil1 fnt6">Podrás verla en las </text>
  <text x="43587" y="8687"  class="fil1 fnt6">Propiedades Disponibles</text>
  <g id="_B_HOME2">
   <g>
    <path class="fil4" d="M43564 10813l6146 0c11,0 20,-9 20,-20l0 -721c0,-11 -9,-20 -20,-20l-6146 0c-11,0 -20,9 -20,20l0 721c0,11 9,20 20,20z"/>
    <path id="1" class="fil7" d="M49710 10824l-6146 0 0 -21 6146 0 0 0 0 21zm8 -31l24 0 0 0 0 2 0 1 0 2 0 1 -1 2 0 1 0 1 -1 2 -1 1 0 1 -1 1 -1 2 -1 1 0 1 -1 1 -1 1 -1 1 -2 1 -1 1 -1 1 -1 1 -2 0 -1 1 -2 1 -1 0 -2 1 -1 0 -2 1 -2 0 -1 0 -2 0 -2 1 0 -21 0 0 1 0 0 0 0 0 1 0 0 0 0 0 0 0 1 0 0 0 0 -1 1 0 0 0 0 0 1 -1 0 0 0 0 1 0 0 -1 0 0 0 -1 1 0 0 -1 0 0 0 -1 1 0 0 -1 0 0 0 -1 0 0 0 -1 0 -1 0 0zm24 -721l0 721 -24 0 0 -721 0 0 24 0zm-32 -9l0 -21 0 0 2 0 2 1 1 0 2 0 2 1 1 0 2 1 1 0 2 1 1 1 2 0 1 1 1 1 1 1 1 1 2 1 1 1 1 1 0 1 1 1 1 2 1 1 0 1 1 1 1 2 0 1 0 1 1 2 0 1 0 2 0 1 0 1 -24 0 0 0 0 -1 0 0 0 -1 0 0 0 -1 -1 0 0 -1 0 0 0 -1 -1 0 0 -1 0 0 0 -1 -1 0 0 0 0 0 -1 -1 0 0 0 0 -1 -1 0 0 0 0 -1 0 0 0 0 0 0 0 -1 0 0 0 0 0 -1 0 0 0 0 0zm-6146 -21l6146 0 0 21 -6146 0 0 0 0 -21zm-8 30l-24 0 0 0 0 -1 0 -1 0 -2 0 -1 0 -2 1 -1 0 -1 1 -2 0 -1 1 -1 1 -1 1 -2 0 -1 1 -1 1 -1 1 -1 1 -1 1 -1 2 -1 1 -1 1 -1 1 0 2 -1 1 -1 2 0 1 -1 2 0 2 -1 1 0 2 0 2 -1 2 0 0 21 -1 0 0 0 0 0 0 0 -1 0 0 0 0 0 -1 0 0 0 0 0 -1 0 0 1 0 0 -1 0 0 0 0 1 0 0 -1 0 0 1 0 0 -1 1 0 0 0 1 0 0 -1 1 0 0 0 1 0 0 0 1 0 0 0 1 0 0 0 0zm-24 721l0 -721 24 0 0 721 0 0 -24 0zm32 10l0 21 0 0 -2 -1 -2 0 -2 0 -1 0 -2 -1 -2 0 -1 -1 -2 0 -1 -1 -2 -1 -1 0 -1 -1 -1 -1 -2 -1 -1 -1 -1 -1 -1 -1 -1 -1 -1 -1 0 -1 -1 -2 -1 -1 -1 -1 0 -1 -1 -2 0 -1 -1 -1 0 -2 0 -1 0 -2 0 -1 0 -2 24 0 0 1 0 1 0 0 0 1 0 0 0 1 0 0 1 1 0 0 0 1 0 0 1 1 0 0 0 1 0 0 1 0 0 1 0 0 1 0 0 0 0 0 1 1 0 0 0 0 1 0 0 0 0 0 1 0 0 0 0 0 0 0 1 0 0 0z"/>
   </g>
   <text x="43846" y="10610"  class="fil2 fnt7">Volver a Tasaciones Realizadas</text>
  </g>
  <g>
   <a xlink:href="https://gonzalomz.github.io/costoya/?flow=usuario-administrador-propiedad-disponible">
    <g>
     <path class="fil4" d="M43564 11784l6146 0c11,0 20,-9 20,-20l0 -721c0,-11 -9,-20 -20,-20l-6146 0c-11,0 -20,9 -20,20l0 721c0,11 9,20 20,20z"/>
     <path id="1" class="fil7" d="M49710 11794l-6146 0 0 -20 6146 0 0 0 0 20zm8 -30l24 0 0 0 0 1 0 1 0 2 0 1 -1 2 0 1 0 1 -1 2 -1 1 0 1 -1 2 -1 1 -1 1 0 1 -1 1 -1 1 -1 1 -2 1 -1 1 -1 1 -1 1 -2 1 -1 0 -2 1 -1 1 -2 0 -1 1 -2 0 -2 0 -1 0 -2 1 -2 0 0 -20 0 0 1 0 0 0 0 -1 1 0 0 0 0 0 0 0 1 0 0 0 0 0 1 -1 0 0 0 0 1 0 0 -1 0 0 1 0 0 -1 0 0 0 -1 1 0 0 0 0 -1 0 0 1 -1 0 -1 0 0 0 -1 0 0 0 -1 0 0 0 0zm24 -721l0 721 -24 0 0 -721 0 0 24 0zm-32 -10l0 -20 0 0 2 0 2 0 1 0 2 0 2 1 1 0 2 1 1 0 2 1 1 1 2 0 1 1 1 1 1 1 1 1 2 1 1 1 1 1 0 1 1 2 1 1 1 1 0 1 1 2 1 1 0 1 0 2 1 1 0 1 0 2 0 1 0 2 -24 0 0 -1 0 -1 0 0 0 -1 0 0 0 -1 -1 0 0 -1 0 0 0 -1 -1 0 0 -1 0 0 0 0 -1 -1 0 0 0 0 -1 -1 0 0 0 0 -1 0 0 -1 0 0 -1 0 0 0 0 0 0 0 -1 0 0 0 0 0 -1 0 0 0 0 0zm-6146 -20l6146 0 0 20 -6146 0 0 0 0 -20zm-8 30l-24 0 0 0 0 -2 0 -1 0 -2 0 -1 0 -1 1 -2 0 -1 1 -1 0 -2 1 -1 1 -1 1 -1 0 -2 1 -1 1 -1 1 -1 1 -1 1 -1 2 -1 1 -1 1 -1 1 0 2 -1 1 -1 2 0 1 -1 2 0 2 -1 1 0 2 0 2 0 2 0 0 20 -1 0 0 0 0 0 0 0 -1 0 0 0 0 0 -1 0 0 0 0 0 -1 1 0 0 0 0 -1 0 0 1 0 0 0 0 -1 1 0 0 0 0 -1 1 0 0 0 1 0 0 -1 1 0 0 0 1 0 0 0 1 0 0 0 1 0 1 0 0zm-24 721l0 -721 24 0 0 721 0 0 -24 0zm32 10l0 20 0 0 -2 0 -2 -1 -2 0 -1 0 -2 0 -2 -1 -1 0 -2 -1 -1 -1 -2 0 -1 -1 -1 -1 -1 -1 -2 -1 -1 -1 -1 -1 -1 -1 -1 -1 -1 -1 0 -1 -1 -1 -1 -2 -1 -1 0 -1 -1 -2 0 -1 -1 -1 0 -2 0 -1 0 -2 0 -1 0 -1 24 0 0 0 0 1 0 0 0 1 0 0 0 1 0 1 1 0 0 1 0 0 0 0 1 1 0 0 0 1 0 0 1 0 0 1 0 0 1 0 0 0 0 1 1 0 0 0 0 0 1 0 0 0 0 0 1 0 0 1 0 0 0 0 1 0 0 0z"/>
    </g>
    <text x="44046" y="11580"  class="fil2 fnt7">Ir a Propiedades Disponibles</text>
   </a>
  </g>
  <g>
   <path class="fil8" d="M47340 4848c2,0 4,1 5,3 148,-23 284,-22 429,-38 -138,0 -281,10 -428,30 -4,2 -3,3 -6,5z"/>
   <path class="fil8" d="M47366 4663c2,1 4,2 5,4 133,-30 246,-20 373,-38 -22,-10 -57,-1 -88,1 -90,7 -186,6 -284,29 -4,1 -3,3 -6,4z"/>
   <path class="fil8" d="M47472 4869c1,3 3,2 4,4 91,-7 177,-4 271,-17 -7,-7 -23,-3 -33,-2 -76,6 -157,6 -236,13 -2,1 -4,2 -6,2z"/>
   <path class="fil8" d="M47472 4769c0,3 3,2 4,4 83,-11 160,-11 239,-12 -76,-8 -159,-2 -243,8z"/>
   <path class="fil8" d="M47547 4903c1,2 1,3 2,5 67,-7 130,-6 198,-17 -64,2 -135,0 -200,12z"/>
   <path class="fil8" d="M47471 4744c1,1 2,3 2,4 85,-13 162,-14 244,-22 -75,-5 -163,-1 -246,18z"/>
   <path class="fil8" d="M47420 4614c1,1 4,-1 5,1 100,-16 195,-24 290,-31 -89,-8 -189,5 -295,30z"/>
   <path class="fil8" d="M47575 4911c1,1 1,2 2,3 79,6 162,3 244,4 -14,-8 -36,-6 -55,-7 -57,-4 -123,-2 -183,-3 -3,1 -5,2 -8,3z"/>
   <path class="fil8" d="M47544 4803c1,0 3,1 4,3 59,-7 117,-12 174,-15 -8,-8 -26,-2 -39,-1 -42,3 -90,4 -132,8 -5,1 -5,3 -7,5z"/>
   <path class="fil8" d="M47489 4524c1,1 2,3 3,4 28,-3 57,-7 87,-14 -29,1 -55,-2 -90,10z"/>
   <path class="fil8" d="M47546 4551c33,2 67,-2 102,-5 -13,-7 -32,-3 -49,-2 -17,1 -35,1 -53,7z"/>
   <path class="fil8" d="M47458 4718c89,-5 182,-19 274,-30 -88,4 -178,11 -274,30z"/>
  </g>
  <g>
   <g>
    <path class="fil8" d="M45797 2364c-39,78 -76,159 -106,247 14,-17 19,-40 27,-61 25,-59 55,-120 79,-181 2,-2 1,-3 0,-5z"/>
    <path class="fil8" d="M46009 2408c-1,1 -3,2 -5,1 -42,121 -102,223 -148,339 59,-104 111,-216 155,-335 0,-3 -2,-3 -2,-5z"/>
    <path class="fil8" d="M45729 2446c-2,0 -3,2 -5,2 -33,69 -70,135 -99,208 41,-62 69,-137 106,-203 1,-3 -1,-4 -2,-7z"/>
    <path class="fil8" d="M46179 2495c-1,1 -3,2 -5,2 -29,112 -88,193 -125,296 19,-13 25,-43 37,-67 33,-70 75,-142 95,-225 0,-3 -2,-3 -2,-6z"/>
    <path class="fil8" d="M45931 2499c-3,0 -4,2 -6,2 -32,71 -73,134 -101,210 11,-2 13,-16 17,-24 27,-59 63,-121 90,-182 0,-2 0,-4 0,-6z"/>
    <path class="fil8" d="M45678 2514c-27,35 -45,76 -67,115 -23,38 -45,77 -64,117 15,-11 25,-32 36,-53 31,-57 68,-118 95,-179z"/>
    <path class="fil8" d="M46029 2536c-3,-1 -3,1 -5,1 -26,67 -59,125 -92,185 40,-54 71,-119 97,-186z"/>
    <path class="fil8" d="M45865 2543c-2,0 -4,0 -6,0 -22,53 -50,100 -69,155 26,-49 59,-101 75,-155z"/>
    <path class="fil8" d="M46055 2545c-2,0 -4,0 -6,0 -23,68 -56,127 -84,192 38,-55 73,-123 90,-192z"/>
    <path class="fil8" d="M45567 2548c-1,0 -3,0 -4,0 -18,28 -31,58 -47,86 -16,29 -36,56 -46,88 41,-49 71,-109 97,-174z"/>
    <path class="fil8" d="M46205 2554c-2,0 -2,4 -4,4 -27,81 -61,155 -95,230 46,-65 77,-145 99,-234z"/>
    <path class="fil8" d="M45523 2559c-2,0 -4,0 -6,0 -23,54 -55,98 -80,150 35,-43 65,-92 86,-150z"/>
    <path class="fil8" d="M45845 2561c-2,0 -3,0 -4,0 -40,58 -73,122 -110,183 14,-8 22,-25 31,-38 29,-42 56,-93 83,-137 0,-3 0,-5 0,-8z"/>
    <path class="fil8" d="M45965 2578c-1,1 -3,2 -5,2 -19,47 -39,93 -61,137 12,-4 14,-19 19,-30 15,-32 34,-69 49,-102 1,-4 -1,-5 -2,-7z"/>
    <path class="fil8" d="M45474 2590c-2,0 -4,0 -6,0 -19,39 -46,69 -64,108 26,-32 52,-66 70,-108z"/>
    <path class="fil8" d="M45768 2609c-13,6 -23,31 -29,49 12,-14 20,-32 29,-49z"/>
    <path class="fil8" d="M45422 2611c-20,25 -37,54 -54,82 26,-18 37,-51 56,-75 1,-4 -1,-5 -2,-7z"/>
    <path class="fil8" d="M46263 2640c-2,0 -3,0 -5,0 -10,22 -18,45 -24,71 11,-22 26,-41 29,-71z"/>
    <path class="fil8" d="M46212 2673c-16,23 -28,51 -40,78 12,-7 17,-23 24,-36 6,-13 14,-27 16,-42z"/>
    <path class="fil8" d="M46086 2545c-34,68 -61,144 -90,217 34,-68 66,-138 90,-217z"/>
   </g>
   <path class="fil9" d="M48059 4466c0,0 -23,-46 6,-59 29,-13 30,33 49,30 18,-4 -3,-88 42,-81 45,6 11,110 11,110l-108 0z"/>
   <path class="fil9" d="M45425 4461c0,0 -45,-54 -24,-96 21,-41 70,-8 102,-14 32,-6 -73,-218 93,-263l20 373 -191 0z"/>
   <path class="fil9" d="M47947 4465c0,0 0,-60 -24,-62 -24,-1 -36,30 -47,15 -12,-15 38,-157 -26,-201l-25 249 122 -1z"/>
   <polygon class="fil9" points="47941,3146 47996,3146 47898,4122 47850,4122 "/>
   <polygon class="fil9" points="45349,3123 45312,3123 45255,2318 45293,2321 "/>
   <polygon class="fil10 str6" points="46392,2953 45521,2905 45545,3146 45351,3146 45291,2295 46354,2375 "/>
   <polygon class="fil9" points="48043,2228 48079,2228 47994,2928 47975,2928 "/>
   <polygon class="fil11" style="mask:url(#id0)" points="46267,2823 45443,2758 45459,3146 45545,3146 45521,2905 46397,2946 46354,2375 46174,2361 "/>
   <polygon class="fil11" points="48010,2496 47971,2894 48438,2894 48489,2456 "/>
   <g>
    <polygon class="fil12" points="48418,2462 48373,2465 48318,2894 48348,2894 "/>
    <polygon class="fil12" points="48129,2894 48268,2894 48320,2470 48177,2482 "/>
   </g>
   <polygon class="fil11" style="mask:url(#id2)" points="48032,2841 48042,2493 48010,2496 47971,2894 48438,2894 48441,2865 "/>
   <polygon class="fil10 str6" points="46391,2945 46345,2239 48054,2117 47827,4458 46497,4458 "/>
   <polygon class="fil13" style="mask:url(#id4)" points="46497,4458 47189,4458 47254,3104 46399,3064 "/>
   <polygon class="fil12 str6" points="45606,4458 47099,4458 47169,2982 45521,2905 "/>
   <polygon class="fil9" points="45772,4458 46921,4458 46976,3282 45707,3221 "/>
   <polygon class="fil12" points="45819,4458 46869,4458 46919,3333 45760,3275 "/>
   <path class="fil9" d="M46872 4386l-1056 0 -1 -12 1058 0 -1 12zm7 -150l-1071 0 0 -11 1072 0 -1 11zm-1080 -185l1088 15 -1 11 -1087 -14 0 -12zm1094 -133l-1101 0 0 -12 1102 0 -1 12zm-1110 -178l1118 0 -1 11 -1116 0 -1 -11zm1124 -125l-1131 -27 -1 -12 1132 27 0 12zm-1139 -179l1144 56 -1 12 -1143 -56 0 -12zm1148 -37l-1154 -77 0 -12 1155 78 -1 11z"/>
   <polygon class="fil11" style="mask:url(#id6)" points="45763,3344 46726,3482 46792,4458 46869,4458 46919,3333 45760,3275 "/>
   <polygon class="fil9" points="46454,4265 46443,4341 46236,4341 46231,4277 "/>
   <g>
    <polygon class="fil14" style="mask:url(#id8)" points="46573,2353 46612,2879 47756,2894 47790,2295 "/>
    <polygon class="fil15 str7" points="46554,2340 46593,2866 47736,2880 47771,2281 "/>
    <polygon class="fil9" points="46597,2375 46630,2829 47697,2841 47728,2321 "/>
    <polygon class="fil11" points="46616,2391 46647,2812 47680,2823 47709,2339 "/>
    <g id="_219915844048">
     <polygon class="fil12" points="47176,2376 47140,2377 47075,2817 47104,2817 "/>
     <polygon class="fil12" points="46815,2814 46994,2816 47054,2379 46882,2384 "/>
    </g>
    <polygon class="fil12" style="mask:url(#id10)" points="46616,2391 46620,2450 47621,2492 47656,2822 47680,2823 47709,2339 "/>
   </g>
   <g>
    <polygon class="fil16" points="47759,4370 47296,4356 47301,4401 47271,4400 47278,4458 47784,4458 47789,4392 47757,4391 "/>
    <polygon class="fil16" points="47290,4372 47297,3392 47782,3411 47723,4384 "/>
    <polygon class="fil15" points="47764,4401 47246,4387 47254,4458 47757,4458 "/>
    <polygon class="fil15" points="47737,4357 47271,4343 47279,4414 47730,4414 "/>
    <polygon class="fil16" points="47276,4388 47731,4400 47732,4394 47274,4367 "/>
    <polygon class="fil15 str6" points="47304,4344 47311,3364 47764,3383 47706,4356 "/>
    <polygon class="fil12 str6" points="47341,4344 47346,3404 47722,3423 47673,4356 "/>
    <polygon class="fil17" points="47706,4356 47304,4344 47305,4254 47341,4258 47341,4275 47675,4316 47676,4305 47708,4311 "/>
    <path class="fil9" d="M47669 3921c0,10 -8,18 -17,18 -10,0 -17,-8 -17,-18 0,-10 7,-19 17,-19 9,0 17,9 17,19z"/>
    <polygon class="fil9" points="47635,3961 47669,3965 47660,4040 47640,4040 "/>
   </g>
   <polygon class="fil9" points="45624,4458 45549,2928 46827,2966 45521,2905 45606,4458 "/>
   <path class="fil9" d="M45191 4469c0,0 12,-1 35,-2 23,0 56,-2 98,-4 42,-1 93,-3 151,-5 59,-2 125,-4 197,-5 72,-2 151,-4 233,-5 83,-2 170,-4 260,-4 181,-2 373,-3 565,-4 193,1 385,2 565,4 91,0 178,2 260,4 83,2 161,3 233,5 72,1 139,3 197,5 59,2 110,4 152,5 42,2 75,4 98,4 22,1 34,2 34,2l0 0c1,0 2,1 2,2 0,1 -1,1 -2,1 0,0 -769,1 -1539,2 -769,-1 -1539,-2 -1539,-2 0,0 -1,0 -1,-1 0,-1 1,-2 1,-2l0 0z"/>
   <path class="fil18" d="M45329 4473c-1,0 -2,0 -3,-1 -2,-2 -3,-5 -2,-8 2,-4 -7,-24 -15,-35 -2,-2 -1,-6 1,-8 2,-2 6,-2 8,1 0,0 23,33 15,48 -1,2 -2,3 -4,3z"/>
   <path class="fil18" d="M45349 4471c-1,0 -2,0 -2,0 -3,-1 -4,-5 -3,-8 0,-1 0,-4 0,-7 -1,-5 -1,-13 3,-18 2,-2 6,-2 8,0 2,2 2,5 0,8 -1,1 -1,6 -1,9 1,5 1,9 0,13 -1,2 -3,3 -5,3z"/>
   <path class="fil9" d="M45731 4466c0,0 -1,0 -2,0 -2,-1 -4,-4 -3,-7 4,-11 -5,-37 -16,-42 -2,-1 -3,-5 -2,-8 1,-3 4,-4 7,-2 15,8 27,39 21,56 -1,2 -3,3 -5,3z"/>
   <path class="fil9" d="M45703 4468c-1,0 -2,0 -3,-1 -2,-1 -3,-5 -2,-8 0,-5 -18,-22 -25,-23 -3,0 -4,-3 -4,-7 1,-3 3,-5 6,-4 8,1 27,16 32,28 3,6 2,9 0,12 0,2 -2,3 -4,3z"/>
   <path class="fil9" d="M46089 4459c-1,0 -1,0 -1,0 -3,-1 -5,-4 -4,-7 0,-2 0,-6 0,-9 0,-4 1,-8 1,-12 2,-10 7,-16 12,-24 2,-2 6,-2 8,0 2,2 2,6 0,8 -5,6 -8,11 -9,19 -1,3 -1,6 -1,9 0,4 0,8 -1,12 -1,2 -3,4 -5,4z"/>
   <path class="fil9" d="M46071 4461c-1,0 -1,0 -2,-1 -2,-1 -4,-4 -3,-7 1,-4 -7,-18 -14,-25 -3,-2 -3,-5 -1,-8 2,-2 5,-2 8,0 4,4 21,24 17,37 -1,2 -3,4 -5,4z"/>
   <path class="fil9" d="M46488 4456c-3,0 -6,-3 -6,-6 0,-16 2,-32 12,-46 2,-2 5,-3 7,-1 3,2 3,6 1,8 -8,12 -9,26 -9,39 0,3 -3,6 -5,6z"/>
   <path class="fil9" d="M47065 4460c-1,0 -2,0 -3,-1 -3,-1 -3,-5 -2,-8 3,-5 -6,-22 -13,-28 -3,-2 -3,-6 -1,-8 2,-3 5,-3 7,-1 8,7 24,29 16,43 -1,2 -3,3 -4,3z"/>
   <path class="fil9" d="M47122 4459c-1,0 -2,0 -2,-1 -3,-1 -4,-5 -2,-7 1,-2 0,-9 0,-13 0,-2 -1,-5 -1,-6 1,-11 3,-64 29,-74 3,-1 6,1 7,4 0,3 -1,6 -4,7 -16,6 -21,44 -21,63 0,1 0,3 0,5 1,7 2,14 -1,19 -1,2 -3,3 -5,3z"/>
   <path class="fil9" d="M47973 4466l-5 0c0,-18 1,-45 23,-52 3,-1 6,0 7,3 0,3 -1,7 -4,7 -14,5 -15,21 -15,42l-6 0z"/>
   <path class="fil9" d="M47988 4471c-3,0 -5,-3 -5,-6 -1,-13 13,-22 22,-23 4,0 6,2 6,5 0,3 -2,6 -5,6 -6,1 -13,6 -13,12 0,3 -2,6 -5,6 0,0 0,0 0,0z"/>
   <polygon class="fil12 str6" points="47888,2928 48471,2928 48468,3066 47888,3054 "/>
   <polygon class="fil11" style="mask:url(#id12)" points="47926,2928 47894,3054 48468,3066 48468,3045 47994,3024 48006,2928 "/>
   <path class="fil8" d="M47974 2921l0 -2c-5,-2 -5,-1 -11,-6l1 0 -1 -1c-13,-10 -25,-25 -38,-35 -1,-2 -4,-3 -6,-5l-4 -3c-2,-1 -3,-2 -3,-3l0 0c-2,-1 -2,-6 -1,-7 12,-4 24,11 34,20 11,10 19,21 28,27 -1,-7 2,-14 0,-21 -14,-4 -22,-17 -33,-26 -8,-7 -23,-12 -19,-22 9,-3 18,6 26,12 9,8 17,19 26,25 1,-7 0,-13 2,-20 -11,-12 -28,-24 -43,-35 -8,-6 -20,-11 -17,-20 7,-5 15,5 23,10 14,10 29,21 38,30 1,-5 2,-11 0,-16 -12,-13 -44,-24 -42,-39 13,-4 30,18 45,26 1,-7 1,-14 -1,-20 -12,-13 -45,-24 -43,-39 13,-4 30,19 46,26 1,-7 3,-14 4,-21 -13,-13 -43,-23 -42,-38 12,-5 28,16 42,23 2,-6 2,-11 3,-17l-30 -21c-9,-7 -24,-13 -21,-24 15,-2 35,23 53,32 2,-6 2,-11 3,-17l-31 -22c-10,-8 -25,-14 -23,-25 9,-4 18,6 27,13l28 20c2,-8 1,-17 2,-25 -7,-7 -19,-13 -29,-19 -10,-6 -25,-14 -23,-24 11,-4 23,11 34,18 7,4 15,7 20,10 0,-8 2,-18 2,-26 -10,-7 -24,-17 -35,-23 -5,-4 -16,-6 -11,-14 14,-5 33,18 49,24 2,-8 5,-15 3,-22 -8,-4 -20,-11 -30,-17 -10,-6 -23,-13 -21,-23 10,-4 19,9 29,15 9,5 18,9 25,14 2,-8 2,-16 1,-23 -12,-11 -42,-16 -41,-32 13,-3 29,15 44,21 0,-6 3,-13 1,-18 -12,-11 -45,-15 -43,-33 7,-6 14,5 21,9 9,5 19,8 26,12 -1,-7 4,-15 1,-22 -13,-11 -46,-13 -44,-30 14,-3 31,15 46,18 1,-17 -45,-22 -42,-42 12,-2 28,15 42,22 27,5 17,83 11,113 -3,20 -8,39 -11,58 -3,19 -3,38 -4,56 -4,39 -14,77 -16,114 -1,11 0,22 -2,34 -3,28 -3,51 -4,80 -2,44 -1,24 -21,16z"/>
   <g>
    <path class="fil8" d="M47560 3481c-24,16 -47,33 -69,54 6,-3 11,-9 17,-13 17,-13 34,-26 51,-40 1,0 1,-1 1,-1z"/>
    <path class="fil8" d="M47614 3527c-1,0 -1,0 -2,-1 -31,28 -64,48 -96,74 34,-20 66,-44 98,-71 0,-1 0,-2 0,-2z"/>
    <path class="fil8" d="M47528 3494c-1,-1 -2,0 -2,-1 -21,15 -42,28 -61,44 21,-11 41,-28 62,-41 1,-1 0,-2 1,-2z"/>
    <path class="fil8" d="M47649 3579c-1,0 -1,0 -2,-1 -26,28 -56,42 -82,66 7,-1 14,-9 21,-14 20,-15 44,-29 62,-50 1,0 0,-1 1,-1z"/>
    <path class="fil8" d="M47577 3540c-1,0 -1,0 -2,0 -20,16 -42,27 -62,45 3,1 6,-3 9,-5 17,-12 37,-24 54,-38 0,0 1,-1 1,-2z"/>
    <path class="fil8" d="M47502 3505c-13,6 -25,15 -37,22 -13,8 -25,15 -37,24 6,-1 12,-5 19,-10 17,-11 38,-23 55,-36z"/>
    <path class="fil8" d="M47599 3567c0,-1 -1,0 -1,-1 -18,15 -37,27 -56,39 20,-9 39,-23 57,-38z"/>
    <path class="fil8" d="M47551 3543c0,-1 -1,-1 -1,-1 -15,12 -31,21 -45,33 15,-9 33,-19 46,-32z"/>
    <path class="fil8" d="M47605 3573c0,0 -1,0 -1,-1 -18,16 -37,28 -55,42 20,-10 40,-24 56,-41z"/>
    <path class="fil8" d="M47465 3497c-1,0 -1,0 -1,0 -10,5 -18,11 -27,17 -9,6 -19,10 -27,18 19,-8 37,-20 55,-35z"/>
    <path class="fil8" d="M47647 3599c-1,0 -1,1 -2,1 -20,19 -42,35 -63,51 23,-11 45,-30 65,-52z"/>
    <path class="fil8" d="M47450 3494c0,-1 -1,-1 -1,-1 -15,11 -32,19 -47,30 17,-7 33,-16 48,-29z"/>
    <path class="fil8" d="M47542 3545c0,0 0,-1 -1,-1 -20,11 -40,24 -60,35 5,0 10,-3 15,-6 15,-7 31,-18 45,-26 1,-1 1,-2 1,-2z"/>
    <path class="fil8" d="M47574 3569c0,0 -1,0 -1,-1 -13,11 -26,21 -39,30 3,1 6,-3 10,-5 9,-7 20,-15 30,-22 1,-1 0,-2 0,-2z"/>
    <path class="fil8" d="M47431 3495c0,-1 -1,-1 -1,-1 -12,8 -24,12 -36,21 13,-6 26,-11 37,-20z"/>
    <path class="fil8" d="M47513 3546c-5,0 -11,6 -16,10 5,-2 11,-6 16,-10z"/>
    <path class="fil8" d="M47414 3492c-10,5 -20,10 -29,15 10,-1 18,-8 28,-12 1,-1 0,-2 1,-3z"/>
    <path class="fil8" d="M47650 3633c0,0 -1,0 -1,-1 -7,5 -13,11 -18,17 6,-4 13,-8 19,-16z"/>
    <path class="fil8" d="M47630 3635c-8,4 -16,10 -24,16 5,0 9,-4 13,-7 4,-3 8,-5 11,-9z"/>
    <path class="fil8" d="M47614 3578c-20,14 -40,32 -60,48 21,-14 41,-29 60,-48z"/>
   </g>
  </g>
  <g id="_B_TASACION">
   <rect class="fil3 str2" x="701" y="3493" width="6144" height="764"/>
   <rect class="fil4" x="713" y="3493" width="6121" height="317"/>
   <text x="1532" y="3760"  class="fil2 fnt2">C O S T A N E R A   3 3 5 0  -  S A N   B E R N A R D O</text>
   <text x="895" y="4156"  class="fil2 fnt3">2257 681653</text>
   <text x="3839" y="4156"  class="fil2 fnt4">Casa</text>
   <text x="5719" y="4134"  class="fil2 fnt4">Venta</text>
   <line class="fil0 str3" x1="3652" y1="4257" x2="3652" y2= "3810" />
   <path class="fil19 str4" d="M701 3493l6144 0 0 -424c0,-11 -9,-20 -20,-20l-6104 0c-11,0 -20,9 -20,20l0 424z"/>
   <text x="3138" y="3371"  class="fil6 fnt5">Juan Pérez</text>
   <circle class="fil0 str5" cx="6506" cy="3273" r="152"/>
   <path class="fil0 str5" d="M6565 3213l-119 120m0 -120l119 120"/>
   <line class="fil0 str3" x1="5551" y1="4257" x2="5551" y2= "3810" />
   <path class="fil2 str8" d="M721 4782l6104 0c11,0 20,-9 20,-20l0 -505 -6144 0 0 505c0,11 9,20 20,20z"/>
   <text x="2734" y="4667"  class="fil6 fnt8">U$S 180.000</text>
  </g>
  <path class="fil2 str8" d="M721 7797l6104 0c11,0 20,-9 20,-20l0 -505 -6144 0 0 505c0,11 9,20 20,20z"/>
  <text x="2835" y="7682"  class="fil6 fnt8">U$S 85.000</text>
  <rect id="_P_TASACION" class="fil0 str0" x="7488" y="567" width="6873" height="13432"/>
  <line class="fil0 str3" x1="14072" y1="8834" x2="7778" y2= "8834" />
  <text x="7964" y="8737"  class="fil20 fnt9">Servicios</text>
  <text x="8045" y="10717"  class="fil21 fnt10">Venta</text>
  <line class="fil0 str3" x1="14072" y1="10288" x2="7778" y2= "10288" />
  <text x="7964" y="10191"  class="fil20 fnt9">Operación de interés</text>
  <text x="8045" y="6574"  class="fil21 fnt10">Costanera 3350  -  San Bernardo</text>
  <text x="8045" y="6107"  class="fil21 fnt10">Casa</text>
  <line class="fil0 str3" x1="14072" y1="5678" x2="7778" y2= "5678" />
  <text x="7964" y="5581"  class="fil20 fnt9">Propiedad</text>
  <text x="8045" y="3884"  class="fil21 fnt10">Juan Pérez</text>
  <line class="fil0 str3" x1="14072" y1="3455" x2="7778" y2= "3455" />
  <text x="7964" y="3359"  class="fil20 fnt9">Interesado</text>
  <g id="_B_HOME">
   <text x="13463" y="1090"  class="fil21 fnt1">volver</text>
   <polyline class="fil0 str9" points="13414,963 13378,1025 13414,1086 "/>
  </g>
  <text x="8045" y="4817"  class="fil21 fnt10">juanp-79@gmail.com</text>
  <text x="8045" y="4351"  class="fil2 fnt11">2257 681653</text>
  <text x="8045" y="7040"  class="fil21 fnt10">Ambientes: 3</text>
  <text x="11476" y="7040"  class="fil21 fnt10">Baños: 2</text>
  <text x="8045" y="7507"  class="fil21 fnt10">m2 totales: 240</text>
  <text x="11476" y="7507"  class="fil21 fnt10">m2 cubiertos: 180</text>
  <text x="8045" y="7973"  class="fil21 fnt10">Garage: 1</text>
  <text x="11476" y="7973"  class="fil21 fnt10">Lavadero: NO</text>
  <text x="8545" y="9427"  class="fil20 fnt12">Luz</text>
  <rect class="fil3 str2" x="7972" y="9088" width="439" height="438" rx="4" ry="40"/>
  <text x="9911" y="9427"  class="fil20 fnt12">Gas</text>
  <text x="11276" y="9427"  class="fil20 fnt12">Agua</text>
  <text x="12842" y="9427"  class="fil20 fnt12">Cloacas</text>
  <polygon class="fil2" points="8079,9288 8172,9440 8344,9154 8167,9363 "/>
  <rect class="fil3 str2" x="9338" y="9088" width="439" height="438" rx="4" ry="40"/>
  <polygon class="fil2" points="9445,9288 9538,9440 9710,9154 9533,9363 "/>
  <rect class="fil3 str2" x="10704" y="9088" width="439" height="438" rx="4" ry="40"/>
  <polygon class="fil2" points="10811,9288 10904,9440 11075,9154 10899,9363 "/>
  <rect class="fil3 str2" x="12270" y="9088" width="439" height="438" rx="4" ry="40"/>
  <polygon class="fil2" points="12377,9288 12470,9440 12641,9154 12464,9363 "/>
  <line class="fil0 str3" x1="14072" y1="11577" x2="7777" y2= "11577" />
  <text x="7963" y="11481"  class="fil20 fnt13">Valor Sugerido</text>
  <rect class="fil3 str2" x="8305" y="12026" width="5241" height="771"/>
  <text x="8956" y="12539"  class="fil20 fnt8">U$S</text>
  <text x="9626" y="12539"  class="fil20 fnt8"> 180.000</text>
  <text x="9665" y="1860"  class="fil1 fnt0">Tasación </text>
  <text x="8847" y="2484"  class="fil1 fnt14">Costanera </text>
  <text x="11648" y="2484"  class="fil1 fnt14">3350</text>
  <rect class="fil19" x="701" y="7896" width="2867" height="525" rx="112" ry="220"/>
  <g>
   <path class="fil4" d="M1032 8328c27,-43 103,-124 103,-186 0,-54 -48,-97 -101,-97 -53,0 -102,43 -102,97 0,61 74,143 100,186zm34 -191c0,18 -14,32 -31,32 -18,0 -32,-14 -32,-32 0,-18 14,-32 32,-32 17,0 31,14 31,32zm27 0c0,33 -26,59 -58,59 -33,0 -59,-26 -59,-59 0,-32 26,-59 59,-59 32,0 58,27 58,59z"/>
   <path class="fil22" d="M965 8323c-100,3 -74,21 -71,-111 3,-155 -19,-107 137,-226 21,-16 188,142 188,157 9,215 45,190 -160,184 -15,-1 -5,-77 -3,-102l-63 -3 -1 59c0,-5 -5,-62 0,-62 101,-10 73,-2 74,95l140 -4 -4 -159c-110,-89 -59,-61 -164,-152l-131 102 -6 220 64 2z"/>
  </g>
  <text x="1336" y="8267"  class="fil6 fnt5">Alta de Propiedad</text>
  <g id="_B_ALTAPROPIEDAD">
   <rect class="fil19" x="701" y="4881" width="2867" height="525" rx="112" ry="220"/>
   <g>
    <path class="fil4" d="M1032 5313c27,-43 103,-124 103,-186 0,-53 -48,-97 -101,-97 -53,0 -102,44 -102,97 0,61 74,143 100,186zm34 -191c0,18 -14,32 -31,32 -18,0 -32,-14 -32,-32 0,-17 14,-32 32,-32 17,0 31,15 31,32zm27 0c0,33 -26,59 -58,59 -33,0 -59,-26 -59,-59 0,-32 26,-59 59,-59 32,0 58,27 58,59z"/>
    <path class="fil22" d="M965 5308c-100,3 -74,21 -71,-111 3,-155 -19,-107 137,-225 21,-17 188,141 188,156 9,215 45,190 -160,184 -15,-1 -5,-77 -3,-102l-63 -3 -1 60c0,-6 -5,-63 0,-63 101,-10 73,-2 74,95l140 -4 -4 -159c-110,-89 -59,-61 -164,-151l-131 101 -6 220 64 2z"/>
   </g>
   <text x="1336" y="5252"  class="fil6 fnt5">Alta de Propiedad</text>
  </g>
  <rect id="_P_ALTAPROPIEDAD" class="fil0 str0" x="14651" y="567" width="6873" height="18252"/>
  <line class="fil0 str3" x1="21234" y1="12074" x2="14940" y2= "12074" />
  <text x="15126" y="11978"  class="fil20 fnt9">Servicios</text>
  <line class="fil0 str3" x1="21234" y1="13528" x2="14940" y2= "13528" />
  <text x="15126" y="13431"  class="fil20 fnt9">Datos Catastrales</text>
  <text x="15208" y="9028"  class="fil21 fnt10">Costanera 3350  -  San Bernardo</text>
  <text x="15208" y="8562"  class="fil21 fnt10">Casa</text>
  <line class="fil0 str3" x1="21234" y1="8133" x2="14940" y2= "8133" />
  <text x="15126" y="8036"  class="fil20 fnt9">Propiedad</text>
  <text x="15208" y="5554"  class="fil21 fnt10">Juan Pérez</text>
  <line class="fil0 str3" x1="21234" y1="5125" x2="14940" y2= "5125" />
  <text x="15126" y="5028"  class="fil20 fnt9">Cliente</text>
  <g id="_B_HOME_0">
   <text x="20625" y="1090"  class="fil21 fnt1">volver</text>
   <polyline class="fil0 str9" points="20576,963 20540,1025 20576,1086 "/>
  </g>
  <g id="_B_CONFIRMACION">
   <rect class="fil23 str10" x="15467" y="16832" width="5767" height="860" rx="33" ry="20"/>
   <text x="15696" y="17439"  class="fil20 fnt15">Finalizar Alta de Propiedad</text>
  </g>
  <text x="15208" y="6487"  class="fil21 fnt10">juanp-79@gmail.com</text>
  <text x="15208" y="6021"  class="fil2 fnt11">2257 681653</text>
  <text x="15208" y="9495"  class="fil21 fnt10">Ambientes: 3</text>
  <text x="18638" y="9495"  class="fil21 fnt10">Baños: 2</text>
  <text x="15208" y="9962"  class="fil21 fnt10">m2 totales: 240</text>
  <text x="18638" y="9962"  class="fil21 fnt10">m2 cubiertos: 180</text>
  <text x="15208" y="10428"  class="fil21 fnt10">Garage: 1</text>
  <text x="18638" y="10428"  class="fil21 fnt10">Lavadero: NO</text>
  <text x="15707" y="12668"  class="fil20 fnt12">Luz</text>
  <rect class="fil3 str2" x="15134" y="12328" width="439" height="438" rx="4" ry="40"/>
  <text x="17073" y="12668"  class="fil20 fnt12">Gas</text>
  <text x="18439" y="12668"  class="fil20 fnt12">Agua</text>
  <text x="20005" y="12668"  class="fil20 fnt12">Cloacas</text>
  <polygon class="fil2" points="15242,12528 15335,12680 15506,12394 15329,12603 "/>
  <rect class="fil3 str2" x="16500" y="12328" width="439" height="438" rx="4" ry="40"/>
  <polygon class="fil2" points="16608,12528 16700,12680 16872,12394 16695,12603 "/>
  <rect class="fil3 str2" x="17866" y="12328" width="439" height="438" rx="4" ry="40"/>
  <polygon class="fil2" points="17973,12528 18066,12680 18238,12394 18061,12603 "/>
  <rect class="fil3 str2" x="19432" y="12328" width="439" height="438" rx="4" ry="40"/>
  <polygon class="fil2" points="19539,12528 19632,12680 19804,12394 19627,12603 "/>
  <line class="fil0 str3" x1="21234" y1="15209" x2="14940" y2= "15209" />
  <text x="15125" y="15113"  class="fil20 fnt13">Valor Sugerido</text>
  <rect class="fil3 str2" x="15467" y="15659" width="5241" height="771"/>
  <text x="16118" y="16171"  class="fil20 fnt8">U$S</text>
  <text x="16788" y="16171"  class="fil20 fnt8"> 180.000</text>
  <text x="15533" y="1860"  class="fil1 fnt0">Nueva Propiedad</text>
  <text x="16009" y="2484"  class="fil1 fnt14">Costanera </text>
  <text x="18810" y="2484"  class="fil1 fnt14">3350</text>
  <g id="_B_ALTAPROPIEDAD_1">
   <rect class="fil19" x="11205" y="13123" width="2867" height="525" rx="112" ry="220"/>
   <g>
    <path class="fil4" d="M11535 13555c27,-42 104,-123 104,-186 0,-53 -48,-96 -101,-96 -54,0 -102,43 -102,96 0,62 74,144 99,186zm35 -190c0,17 -14,32 -32,32 -17,0 -31,-15 -31,-32 0,-18 14,-32 31,-32 18,0 32,14 32,32zm27 0c0,32 -26,59 -59,59 -32,0 -58,-27 -58,-59 0,-33 26,-59 58,-59 33,0 59,26 59,59z"/>
    <path class="fil22" d="M11469 13551c-100,3 -74,21 -71,-111 3,-155 -19,-107 136,-226 22,-16 189,142 189,157 9,214 45,190 -160,184 -15,-1 -5,-77 -3,-102l-63 -3 -1 59c-1,-5 -6,-62 -1,-63 102,-9 73,-1 75,96l140 -4 -4 -159c-110,-89 -60,-61 -165,-152l-130 102 -6 220 64 2z"/>
   </g>
   <text x="11840" y="13494"  class="fil6 fnt5">Alta de Propiedad</text>
  </g>
  <g id="_B_CLIENTE">
   <rect class="fil23 str10" x="16997" y="6873" width="4237" height="482" rx="43" ry="20"/>
   <text x="17180" y="7230"  class="fil20 fnt16">Completar los datos del Cliente</text>
  </g>
  <g id="_B_PROPIEDAD">
   <rect class="fil23 str10" x="16394" y="10814" width="4841" height="482" rx="50" ry="20"/>
   <text x="16572" y="11172"  class="fil20 fnt16">Completar los datos de la Propiedad</text>
  </g>
  <rect class="fil3 str2" x="18310" y="3739" width="1751" height="575" rx="77" ry="270"/>
  <text x="18751" y="4129"  class="fil24 fnt17">Alquiler</text>
  <rect class="fil25 str11" x="16113" y="3739" width="1751" height="575" rx="77" ry="270"/>
  <text x="16661" y="4129"  class="fil26 fnt18">Venta</text>
  <line class="fil0 str3" x1="21234" y1="3455" x2="14940" y2= "3455" />
  <text x="15126" y="3359"  class="fil20 fnt9">Operación</text>
  <g id="_B_CATASTRO">
   <rect class="fil23 str10" x="16939" y="13867" width="4295" height="482" rx="44" ry="20"/>
   <text x="17084" y="14225"  class="fil20 fnt16">Completar los Datos Catastrales</text>
  </g>
  <rect id="_P_CLIENTE" class="fil0 str0" x="21800" y="567" width="6873" height="7620"/>
  <g id="_B_ALTAPROPIEDAD_2">
   <text x="27774" y="1090"  class="fil21 fnt1">volver</text>
   <polyline class="fil0 str9" points="27725,963 27689,1025 27725,1086 "/>
  </g>
  <text x="22719" y="1860"  class="fil1 fnt0">Datos del Cliente</text>
  <text x="22357" y="3356"  class="fil21 fnt10">Juan Pérez</text>
  <line class="fil0 str3" x1="28383" y1="2927" x2="22089" y2= "2927" />
  <text x="22275" y="2830"  class="fil20 fnt9">Interesado</text>
  <text x="22357" y="4289"  class="fil21 fnt10">juanp-79@gmail.com</text>
  <text x="22357" y="3822"  class="fil2 fnt11">2257 681653</text>
  <rect class="fil3 str2" x="22164" y="6048" width="6144" height="575"/>
  <text x="22354" y="5946"  class="fil20 fnt12">DNI</text>
  <rect class="fil3 str2" x="22164" y="4979" width="6144" height="575"/>
  <text x="22354" y="4877"  class="fil20 fnt12">Dirección</text>
  <rect class="fil3 str2" x="22164" y="7117" width="6144" height="575"/>
  <text x="22354" y="7015"  class="fil20 fnt12">CUIT/CUIL</text>
  <text x="22351" y="7499"  class="fil27 fnt19">Ingrese el número sin guiones</text>
  <text x="22351" y="5361"  class="fil27 fnt19">Ingrese una dirección</text>
  <text x="22351" y="6430"  class="fil27 fnt19">Ingrese el número sin puntos</text>
  <rect id="_P_PROPIEDAD" class="fil0 str0" x="28942" y="567" width="6873" height="9382"/>
  <g id="_B_ALTAPROPIEDAD_3">
   <text x="34917" y="1090"  class="fil21 fnt1">volver</text>
   <polyline class="fil0 str9" points="34867,963 34832,1025 34867,1086 "/>
  </g>
  <text x="30031" y="1860"  class="fil1 fnt0">Datos de la</text>
  <line class="fil0 str3" x1="35526" y1="3455" x2="29232" y2= "3455" />
  <text x="29417" y="3359"  class="fil20 fnt9">Propiedad</text>
  <text x="31591" y="2514"  class="fil1 fnt0">Propiedad</text>
  <text x="29499" y="4351"  class="fil21 fnt10">Costanera 3350  -  San Bernardo</text>
  <text x="29499" y="3884"  class="fil21 fnt10">Casa</text>
  <text x="29499" y="4817"  class="fil21 fnt10">Ambientes: 3</text>
  <text x="32930" y="4817"  class="fil21 fnt10">Baños: 2</text>
  <text x="29499" y="5284"  class="fil21 fnt10">m2 totales: 240</text>
  <text x="32930" y="5284"  class="fil21 fnt10">m2 cubiertos: 180</text>
  <text x="29499" y="5751"  class="fil21 fnt10">Garage: 1</text>
  <text x="32930" y="5751"  class="fil21 fnt10">Lavadero: NO</text>
  <rect id="_P_CATASTRO" class="fil0 str0" x="36075" y="567" width="6873" height="4937"/>
  <g id="_B_ALTAPROPIEDAD_4">
   <text x="42049" y="1090"  class="fil21 fnt1">volver</text>
   <polyline class="fil0 str9" points="42000,963 41964,1025 42000,1086 "/>
  </g>
  <text x="36929" y="1860"  class="fil1 fnt0">Datos Catastrales</text>
  <line class="fil0 str3" x1="42658" y1="2927" x2="36364" y2= "2927" />
  <text x="36550" y="2830"  class="fil20 fnt9">Catastro</text>
  <rect class="fil3 str2" x="36439" y="4530" width="6144" height="575"/>
  <text x="36629" y="4428"  class="fil20 fnt20">Nº Partida</text>
  <rect class="fil3 str2" x="36439" y="3461" width="2418" height="575"/>
  <text x="36629" y="3359"  class="fil20 fnt12">Nº de Partido</text>
  <text x="36623" y="3843"  class="fil27 fnt19">Ingrese un número</text>
  <text x="36626" y="4912"  class="fil27 fnt19">Ingrese el número sin guiones</text>
  <rect class="fil3 str2" x="39104" y="3461" width="3479" height="575"/>
  <text x="39294" y="3359"  class="fil20 fnt12">Nombre</text>
  <text x="39291" y="3843"  class="fil27 fnt19">Ingrese una dirección</text>
  <rect class="fil4 str12" x="34070" y="7108" width="1371" height="1137"/>
  <rect class="fil4 str12" x="32502" y="7108" width="1371" height="1137"/>
  <rect class="fil4 str12" x="30935" y="7108" width="1371" height="1137"/>
  <g>
   <text x="31302" y="7974"  class="fil28 fnt21">F</text>
   <text x="31432" y="7974"  class="fil28 fnt21">o</text>
   <text x="31569" y="7974"  class="fil28 fnt21">t</text>
   <text x="31647" y="7974"  class="fil28 fnt21">o </text>
   <text x="31830" y="7974"  class="fil28 fnt21">1</text>
   <polygon class="fil29" points="31448,7449 31571,7597 31743,7375 31965,7670 31276,7670 31448,7449 "/>
  </g>
  <g>
   <text x="32870" y="7974"  class="fil28 fnt21">F</text>
   <text x="32999" y="7974"  class="fil28 fnt21">o</text>
   <text x="33136" y="7974"  class="fil28 fnt21">t</text>
   <text x="33214" y="7974"  class="fil28 fnt21">o </text>
   <text x="33398" y="7974"  class="fil28 fnt21">2</text>
   <polygon class="fil29" points="33015,7449 33138,7597 33311,7375 33532,7670 32843,7670 33015,7449 "/>
  </g>
  <g>
   <text x="34437" y="7974"  class="fil28 fnt21">F</text>
   <text x="34567" y="7974"  class="fil28 fnt21">o</text>
   <text x="34703" y="7974"  class="fil28 fnt21">t</text>
   <text x="34782" y="7974"  class="fil28 fnt21">o </text>
   <text x="34965" y="7974"  class="fil28 fnt21">3</text>
   <polygon class="fil29" points="34582,7449 34706,7597 34878,7375 35100,7670 34410,7670 34582,7449 "/>
  </g>
  <text x="29300" y="6707"  class="fil30 fnt17">A</text>
  <text x="29454" y="6707"  class="fil30 fnt17">d</text>
  <text x="29591" y="6707"  class="fil30 fnt17">j</text>
  <text x="29651" y="6707"  class="fil30 fnt17">u</text>
  <text x="29789" y="6707"  class="fil30 fnt17">n</text>
  <text x="29926" y="6707"  class="fil30 fnt17">t</text>
  <text x="30007" y="6707"  class="fil30 fnt17">a</text>
  <text x="30138" y="6707"  class="fil30 fnt17">r </text>
  <text x="30269" y="6707"  class="fil30 fnt17">f</text>
  <text x="30350" y="6707"  class="fil30 fnt17">o</text>
  <text x="30487" y="6707"  class="fil30 fnt17">t</text>
  <text x="30568" y="6707"  class="fil30 fnt17">o</text>
  <text x="30705" y="6707"  class="fil30 fnt17">g</text>
  <text x="30842" y="6707"  class="fil30 fnt17">r</text>
  <text x="30926" y="6707"  class="fil30 fnt17">a</text>
  <text x="31057" y="6707"  class="fil30 fnt17">f</text>
  <text x="31137" y="6707"  class="fil30 fnt17">í</text>
  <text x="31198" y="6707"  class="fil30 fnt17">a</text>
  <text x="31329" y="6707"  class="fil30 fnt17">s</text>
  <circle class="fil7" cx="30068" cy="7677" r="539"/>
  <line class="fil0 str3" x1="35526" y1="6803" x2="29232" y2= "6803" />
  <rect class="fil4 str12" x="32502" y="8429" width="1371" height="1137"/>
  <rect class="fil4 str12" x="30935" y="8429" width="1371" height="1137"/>
  <rect class="fil4 str12" x="29368" y="8429" width="1371" height="1137"/>
  <g>
   <text x="29735" y="9296"  class="fil28 fnt21">F</text>
   <text x="29865" y="9296"  class="fil28 fnt21">o</text>
   <text x="30001" y="9296"  class="fil28 fnt21">t</text>
   <text x="30080" y="9296"  class="fil28 fnt21">o </text>
   <text x="30263" y="9296"  class="fil28 fnt21">4</text>
   <polygon class="fil29" points="29881,8770 30004,8919 30176,8697 30398,8992 29708,8992 29881,8770 "/>
  </g>
  <g>
   <text x="31302" y="9296"  class="fil28 fnt21">F</text>
   <text x="31432" y="9296"  class="fil28 fnt21">o</text>
   <text x="31569" y="9296"  class="fil28 fnt21">t</text>
   <text x="31647" y="9296"  class="fil28 fnt21">o </text>
   <text x="31830" y="9296"  class="fil28 fnt21">5</text>
   <polygon class="fil29" points="31448,8770 31571,8919 31743,8697 31965,8992 31276,8992 31448,8770 "/>
  </g>
  <g>
   <text x="32870" y="9296"  class="fil28 fnt21">F</text>
   <text x="32999" y="9296"  class="fil28 fnt21">o</text>
   <text x="33136" y="9296"  class="fil28 fnt21">t</text>
   <text x="33214" y="9296"  class="fil28 fnt21">o </text>
   <text x="33398" y="9296"  class="fil28 fnt21">6</text>
   <polygon class="fil29" points="33015,8770 33138,8919 33311,8697 33532,8992 32843,8992 33015,8770 "/>
  </g>
  <path class="fil0 str13" d="M30335 7677l-533 0m266 -266l0 532"/>
  <rect class="fil4 str12" x="34070" y="8429" width="1371" height="1137"/>
  <g>
   <text x="34437" y="9296"  class="fil28 fnt21">F</text>
   <text x="34567" y="9296"  class="fil28 fnt21">o</text>
   <text x="34703" y="9296"  class="fil28 fnt21">t</text>
   <text x="34782" y="9296"  class="fil28 fnt21">o </text>
   <text x="34965" y="9296"  class="fil28 fnt21">7 </text>
   <polygon class="fil29" points="34582,8770 34706,8919 34878,8697 35100,8992 34410,8992 34582,8770 "/>
  </g>
  <rect id="_P_HOME_5" class="fil0 str0" x="50396" y="567" width="6873" height="10106"/>
  <text x="51164" y="1860"  class="fil1 fnt0">Tasaciones</text>
  <text x="53229" y="2498"  class="fil1 fnt0">Realizadas</text>
  <g id="_B_SUPERHOME_6">
   <text x="56371" y="1050"  class="fil2 fnt1">volver</text>
   <polyline class="fil0 str1" points="56321,923 56286,985 56321,1046 "/>
  </g>
  <rect class="fil3 str2" x="50761" y="3493" width="6144" height="764"/>
  <rect class="fil4" x="50772" y="3493" width="6121" height="317"/>
  <text x="52030" y="3760"  class="fil2 fnt2">E N T R E   R Í O S   630  -  L A   L U C I L A</text>
  <text x="50954" y="4156"  class="fil2 fnt3">2257 529378</text>
  <text x="53899" y="4156"  class="fil2 fnt4">Lote</text>
  <text x="55779" y="4134"  class="fil2 fnt4">Venta</text>
  <line class="fil0 str3" x1="53712" y1="4257" x2="53712" y2= "3810" />
  <path class="fil5 str4" d="M50761 3493l6144 0 0 -424c0,-11 -9,-20 -20,-20l-6104 0c-11,0 -20,9 -20,20l0 424z"/>
  <text x="53108" y="3371"  class="fil6 fnt5">Pablo Varela</text>
  <circle class="fil0 str5" cx="56565" cy="3273" r="152"/>
  <path class="fil0 str5" d="M56625 3213l-119 120m0 -120l119 120"/>
  <line class="fil0 str3" x1="55611" y1="4257" x2="55611" y2= "3810" />
  <path class="fil2 str8" d="M50781 4782l6104 0c11,0 20,-9 20,-20l0 -505 -6144 0 0 505c0,11 9,20 20,20z"/>
  <text x="52894" y="4667"  class="fil6 fnt8">U$S 85.000</text>
  <rect class="fil19" x="50761" y="4881" width="2867" height="525" rx="112" ry="220"/>
  <g>
   <path class="fil4" d="M51091 5313c27,-43 104,-124 104,-186 0,-53 -48,-97 -102,-97 -53,0 -101,44 -101,97 0,61 74,143 99,186zm35 -191c0,18 -14,32 -32,32 -17,0 -32,-14 -32,-32 0,-17 15,-32 32,-32 18,0 32,15 32,32zm27 0c0,33 -26,59 -59,59 -32,0 -59,-26 -59,-59 0,-32 27,-59 59,-59 33,0 59,27 59,59z"/>
   <path class="fil22" d="M51024 5308c-100,3 -73,21 -70,-111 3,-155 -19,-107 136,-225 21,-17 188,141 189,156 9,215 45,190 -160,184 -15,-1 -5,-77 -4,-102l-62 -3 -2 60c0,-6 -5,-63 0,-63 102,-10 73,-2 74,95l141 -4 -5 -159c-109,-89 -59,-61 -164,-151l-130 101 -7 220 64 2z"/>
  </g>
  <text x="51396" y="5252"  class="fil6 fnt5">Alta de Propiedad</text>
 </g>
</svg>
